<?xml version="1.0" encoding="UTF-8"?>
<svg width="111px" height="112px" viewBox="0 0 111 112" version="1.1" xmlns="http://www.w3.org/2000/svg" xmlns:xlink="http://www.w3.org/1999/xlink" xmlns:sketch="http://www.bohemiancoding.com/sketch/ns">
    <!-- Generator: Sketch 3.3.3 (12072) - http://www.bohemiancoding.com/sketch -->
    <title>Logo</title>
    <desc>Created with Sketch.</desc>
    <defs></defs>
    <g id="Page-4" stroke="none" stroke-width="1" fill="none" fill-rule="evenodd" sketch:type="MSPage">
        <g id="brand-variations" sketch:type="MSLayerGroup" transform="translate(-307.000000, -328.000000)" fill="#FFCC00">
            <g id="yarilabs_site" transform="translate(307.000000, 328.000000)" sketch:type="MSShapeGroup">
                <g id="Logo">
                    <path d="M57.8306,72.6289 L76.5536,72.6289 L67.1856,56.4319 L57.8306,72.6289 Z" id="Fill-150"></path>
                    <path d="M44.7349,80.2285 L63.1529,48.2125 L63.2509,48.0725 L72.6369,31.7535 L81.4129,31.7535 L71.5489,48.7915 L89.6369,80.2285 L44.7349,80.2285 Z M29.8559,80.2285 L39.7149,63.1835 L21.6259,31.7535 L30.3389,31.7535 L44.0829,55.5445 L57.8269,31.7535 L66.5359,31.7535 L48.1139,63.7615 L48.0179,63.9045 L38.6309,80.2285 L29.8559,80.2285 Z M44.0829,24.9945 L51.8759,24.9945 L47.9689,31.7535 L44.0829,38.5075 L40.1759,31.7535 L36.2899,24.9945 L44.0829,24.9945 Z M0.5889,111.0465 L110.6829,111.0465 L110.6829,0.9525 L0.5889,0.9525 L0.5889,111.0465 Z" id="Fill-152"></path>
                </g>
            </g>
        </g>
    </g>
</svg>