<?xml version="1.0" encoding="UTF-8"?>
<svg width="410px" height="112px" viewBox="0 0 410 112" version="1.1" xmlns="http://www.w3.org/2000/svg" xmlns:xlink="http://www.w3.org/1999/xlink" xmlns:sketch="http://www.bohemiancoding.com/sketch/ns">
    <!-- Generator: Sketch 3.3.3 (12072) - http://www.bohemiancoding.com/sketch -->
    <title>yarilabs_site</title>
    <desc>Created with Sketch.</desc>
    <defs></defs>
    <g id="Page-4" stroke="none" stroke-width="1" fill="none" fill-rule="evenodd" sketch:type="MSPage">
        <g id="brand-variations" sketch:type="MSLayerGroup" transform="translate(-307.000000, -328.000000)">
            <g id="yarilabs_site" transform="translate(307.000000, 328.000000)" sketch:type="MSShapeGroup">
                <g id="Letras" transform="translate(145.000000, 26.000000)">
                    <path d="M256.6445,27.8506 C256.6445,25.1046 254.9315,23.0046 251.4775,23.0736 C248.1445,23.0736 246.3115,25.2826 246.3815,27.6376 C246.5065,30.4506 249.0545,31.7706 252.8485,32.8036 C258.2705,34.3016 264.2145,35.8706 264.4115,43.5286 C264.5505,50.4406 258.7995,55.1496 251.7405,55.1496 C246.1155,55.1496 239.1325,51.9696 238.7915,43.8486 L245.5255,43.8486 C245.7935,48.1596 249.2505,49.6206 251.7985,49.6206 C255.0765,49.6206 257.6235,47.3056 257.6235,44.3096 C257.5525,40.7826 254.8785,39.6066 248.5385,37.5046 C243.5655,36.0086 239.6485,33.6596 239.5765,28.3116 C239.5765,21.5796 245.0665,17.5166 251.5475,17.5166 C256.4495,17.5166 262.8425,19.9406 263.3735,27.8506 L256.6445,27.8506 Z" id="Fill-136" fill="#666677"></path>
                    <path d="M50.5947,48.8545 C43.6867,48.8545 38.0767,43.2505 38.0767,36.3235 C38.0767,29.4325 43.6867,23.8215 50.5947,23.8215 C57.4897,23.8215 63.0957,29.4325 63.0957,36.3235 C63.0957,43.2505 57.4897,48.8545 50.5947,48.8545 L50.5947,48.8545 Z M63.2087,18.5655 L63.2087,22.3775 C59.8557,19.3505 55.4417,17.5105 50.5947,17.5105 C40.1877,17.5105 31.7647,25.9525 31.7647,36.3235 C31.7647,46.7315 40.1877,55.1495 50.5947,55.1495 C55.4417,55.1495 59.8557,53.3115 63.2087,50.3055 L63.2087,54.1045 L69.9967,54.1045 L69.9967,18.5655 L63.2087,18.5655 Z" id="Fill-138" fill="#FFCC00"></path>
                    <path d="M171.3076,48.8545 C164.3986,48.8545 158.7906,43.2505 158.7906,36.3235 C158.7906,29.4325 164.3986,23.8215 171.3076,23.8215 C178.2076,23.8215 183.8076,29.4325 183.8076,36.3235 C183.8076,43.2505 178.2076,48.8545 171.3076,48.8545 L171.3076,48.8545 Z M183.9226,18.5655 L183.9226,22.3755 C180.5686,19.3505 176.1546,17.5105 171.3076,17.5105 C160.9036,17.5105 152.4826,25.9525 152.4826,36.3235 C152.4826,46.7315 160.9036,55.1495 171.3076,55.1495 C176.1546,55.1495 180.5686,53.3115 183.9226,50.3075 L183.9226,54.1045 L190.7086,54.1045 L190.7086,18.5655 L183.9226,18.5655 Z" id="Fill-140" fill="#666677"></path>
                    <path d="M125.9404,5.7529 L132.7444,5.7529 L132.7444,47.2999 L150.7044,47.2999 L150.7044,54.1049 L125.9404,54.1049 L125.9404,5.7529 Z" id="Fill-134" fill="#666677"></path>
                    <path d="M118.422,12.558 L111.618,12.558 L111.618,5.753 L118.422,5.753 L118.422,12.558 Z M111.618,18.565 L118.422,18.565 L118.422,54.104 L111.618,54.104 L111.618,18.565 Z" id="Fill-135" fill="#FFCC00"></path>
                    <path d="M217.3437,48.8545 C210.4337,48.8545 204.8237,43.2505 204.8237,36.3235 C204.8237,29.4325 210.4337,23.8215 217.3437,23.8215 C224.2367,23.8215 229.8427,29.4325 229.8427,36.3235 C229.8427,43.2505 224.2367,48.8545 217.3437,48.8545 M217.3437,17.5105 C212.4797,17.5105 208.0677,19.3505 204.7297,22.3755 L204.7297,5.7545 L197.9237,5.7545 L197.9237,54.1045 L204.7297,54.1045 L204.7297,50.3075 C208.0677,53.3115 212.4797,55.1495 217.3437,55.1495 C227.7357,55.1495 236.1557,46.7315 236.1557,36.3235 C236.1557,25.9525 227.7357,17.5105 217.3437,17.5105" id="Fill-142" fill="#666677"></path>
                    <path d="M88.834,24.4971 L89.825,24.4971 L89.84,24.4971 C89.941,24.5011 88.739,24.4971 88.834,24.4971 C95.338,24.4971 97.429,27.8101 97.429,31.8351 C97.429,34.6101 95.872,37.0181 93.594,38.2271 L85.812,24.4971 L88.834,24.4971 Z M103.783,31.5521 C103.783,23.0521 97.527,18.5321 88.148,18.5321 L77.212,18.5321 L77.212,54.0581 L84.017,54.0581 L84.017,33.4791 L95.677,54.0581 L102.56,54.0581 L96.952,44.1421 C99.072,42.8291 103.783,38.8231 103.783,31.5521 L103.783,31.5521 Z" id="Fill-144" fill="#FFCC00"></path>
                    <path d="M19.1953,0.1826 L25.6273,0.1826 L22.4143,5.7546 L19.1953,11.3256 L15.9923,5.7546 L12.7723,0.1826 L19.1953,0.1826 Z" id="Fill-146" fill="#666677"></path>
                    <path d="M30.4043,5.7549 L30.4043,5.7549 L24.8053,15.4539 L19.1923,25.1889 L13.5933,15.4539 L7.9783,5.7549 L7.9783,5.7529 L0.2923,5.7529 L15.7963,32.7059 L15.7963,54.1049 L22.5943,54.1049 L22.5943,32.7059 L38.0923,5.7529" id="Fill-148" fill="#FFCC00"></path>
                </g>
                <g id="Logo" fill="#FFCC00">
                    <path d="M57.8306,72.6289 L76.5536,72.6289 L67.1856,56.4319 L57.8306,72.6289 Z" id="Fill-150"></path>
                    <path d="M44.7349,80.2285 L63.1529,48.2125 L63.2509,48.0725 L72.6369,31.7535 L81.4129,31.7535 L71.5489,48.7915 L89.6369,80.2285 L44.7349,80.2285 Z M29.8559,80.2285 L39.7149,63.1835 L21.6259,31.7535 L30.3389,31.7535 L44.0829,55.5445 L57.8269,31.7535 L66.5359,31.7535 L48.1139,63.7615 L48.0179,63.9045 L38.6309,80.2285 L29.8559,80.2285 Z M44.0829,24.9945 L51.8759,24.9945 L47.9689,31.7535 L44.0829,38.5075 L40.1759,31.7535 L36.2899,24.9945 L44.0829,24.9945 Z M0.5889,111.0465 L110.6829,111.0465 L110.6829,0.9525 L0.5889,0.9525 L0.5889,111.0465 Z" id="Fill-152"></path>
                </g>
            </g>
        </g>
    </g>
</svg>