<?xml version="1.0" encoding="UTF-8"?>
<svg width="410px" height="112px" viewBox="0 0 410 112" version="1.1" xmlns="http://www.w3.org/2000/svg" xmlns:xlink="http://www.w3.org/1999/xlink" xmlns:sketch="http://www.bohemiancoding.com/sketch/ns">
    <!-- Generator: Sketch 3.3.3 (12072) - http://www.bohemiancoding.com/sketch -->
    <title>logo</title>
    <desc>Created with Sketch.</desc>
    <defs></defs>
    <g id="Page-15" stroke="none" stroke-width="1" fill="none" fill-rule="evenodd" sketch:type="MSPage">
        <g id="brand-variations" sketch:type="MSLayerGroup" transform="translate(-307.000000, -328.000000)">
            <g id="logo" transform="translate(307.000000, 328.000000)" sketch:type="MSShapeGroup">
                <path d="M401.6436,53.8516 C401.6436,51.1056 399.9306,49.0056 396.4766,49.0746 C393.1436,49.0746 391.3106,51.2836 391.3806,53.6386 C391.5056,56.4516 394.0536,57.7716 397.8476,58.8046 C403.2696,60.3026 409.2136,61.8716 409.4106,69.5296 C409.5496,76.4416 403.7986,81.1506 396.7396,81.1506 C391.1146,81.1506 384.1316,77.9706 383.7906,69.8496 L390.5246,69.8496 C390.7926,74.1606 394.2496,75.6216 396.7976,75.6216 C400.0756,75.6216 402.6226,73.3066 402.6226,70.3106 C402.5516,66.7836 399.8776,65.6076 393.5376,63.5056 C388.5646,62.0096 384.6476,59.6606 384.5756,54.3126 C384.5756,47.5806 390.0656,43.5176 396.5466,43.5176 C401.4486,43.5176 407.8416,45.9416 408.3726,53.8516 L401.6436,53.8516 Z" id="Fill-450" fill="#555555"></path>
                <path d="M195.5937,74.8555 C188.6857,74.8555 183.0757,69.2515 183.0757,62.3245 C183.0757,55.4335 188.6857,49.8225 195.5937,49.8225 C202.4887,49.8225 208.0947,55.4335 208.0947,62.3245 C208.0947,69.2515 202.4887,74.8555 195.5937,74.8555 L195.5937,74.8555 Z M208.2077,44.5665 L208.2077,48.3785 C204.8547,45.3515 200.4407,43.5115 195.5937,43.5115 C185.1867,43.5115 176.7637,51.9535 176.7637,62.3245 C176.7637,72.7325 185.1867,81.1505 195.5937,81.1505 C200.4407,81.1505 204.8547,79.3125 208.2077,76.3065 L208.2077,80.1055 L214.9957,80.1055 L214.9957,44.5665 L208.2077,44.5665 Z" id="Fill-452" fill="#FFCC00"></path>
                <path d="M316.3066,74.8555 C309.3976,74.8555 303.7896,69.2515 303.7896,62.3245 C303.7896,55.4335 309.3976,49.8225 316.3066,49.8225 C323.2066,49.8225 328.8066,55.4335 328.8066,62.3245 C328.8066,69.2515 323.2066,74.8555 316.3066,74.8555 L316.3066,74.8555 Z M328.9216,44.5665 L328.9216,48.3765 C325.5676,45.3515 321.1536,43.5115 316.3066,43.5115 C305.9026,43.5115 297.4816,51.9535 297.4816,62.3245 C297.4816,72.7325 305.9026,81.1505 316.3066,81.1505 C321.1536,81.1505 325.5676,79.3125 328.9216,76.3085 L328.9216,80.1055 L335.7076,80.1055 L335.7076,44.5665 L328.9216,44.5665 Z" id="Fill-454" fill="#555555"></path>
                <path d="M362.3428,74.8555 C355.4328,74.8555 349.8228,69.2515 349.8228,62.3245 C349.8228,55.4335 355.4328,49.8225 362.3428,49.8225 C369.2358,49.8225 374.8418,55.4335 374.8418,62.3245 C374.8418,69.2515 369.2358,74.8555 362.3428,74.8555 M362.3428,43.5115 C357.4788,43.5115 353.0668,45.3515 349.7288,48.3765 L349.7288,31.7555 L342.9228,31.7555 L342.9228,80.1055 L349.7288,80.1055 L349.7288,76.3085 C353.0668,79.3125 357.4788,81.1505 362.3428,81.1505 C372.7348,81.1505 381.1548,72.7325 381.1548,62.3245 C381.1548,51.9535 372.7348,43.5115 362.3428,43.5115" id="Fill-456" fill="#555555"></path>
                <path d="M233.833,50.498 L234.824,50.498 L234.839,50.498 C234.94,50.502 233.738,50.498 233.833,50.498 C240.337,50.498 242.428,53.811 242.428,57.836 C242.428,60.611 240.871,63.019 238.593,64.228 L230.811,50.498 L233.833,50.498 Z M248.782,57.553 C248.782,49.053 242.526,44.533 233.147,44.533 L222.211,44.533 L222.211,80.059 L229.016,80.059 L229.016,59.48 L240.676,80.059 L247.559,80.059 L241.951,70.143 C244.071,68.83 248.782,64.824 248.782,57.553 L248.782,57.553 Z" id="Fill-458" fill="#FFCC00"></path>
                <path d="M164.1943,26.1836 L170.6263,26.1836 L167.4133,31.7556 L164.1943,37.3266 L160.9913,31.7556 L157.7713,26.1836 L164.1943,26.1836 Z" id="Fill-460" fill="#555555"></path>
                <path d="M263.421,38.559 L256.617,38.559 L256.617,31.754 L263.421,31.754 L263.421,38.559 Z M256.617,44.566 L263.421,44.566 L263.421,80.105 L256.617,80.105 L256.617,44.566 Z" id="Fill-449" fill="#FFCC00"></path>
                <path d="M270.9395,31.7539 L277.7435,31.7539 L277.7435,73.3009 L295.7035,73.3009 L295.7035,80.1059 L270.9395,80.1059 L270.9395,31.7539 Z" id="Fill-448" fill="#555555"></path>
                <path d="M175.4033,31.7559 L175.4033,31.7559 L169.8043,41.4549 L164.1913,51.1899 L158.5923,41.4549 L152.9773,31.7559 L152.9773,31.7539 L145.2913,31.7539 L160.7953,58.7069 L160.7953,80.1059 L167.5933,80.1059 L167.5933,58.7069 L183.0913,31.7539" id="Fill-462" fill="#FFCC00"></path>
                <path d="M44.082,24.9922 L51.875,24.9922 L47.968,31.7512 L44.082,38.5052 L40.176,31.7512 L36.289,24.9922 L44.082,24.9922 Z" id="Fill-464" fill="#555555"></path>
                <path d="M29.8545,80.2256 L39.7135,63.1806 L21.6255,31.7506 L30.3375,31.7506 L44.0825,55.5426 L57.8255,31.7506 L66.5345,31.7506 L48.1125,63.7596 L48.0165,63.9026 L38.6305,80.2256 L29.8545,80.2256 Z" id="Fill-466" fill="#FFCC00"></path>
                <path d="M57.8301,72.627 L76.5511,72.627 L67.1851,56.429 L57.8301,72.627 Z M44.7331,80.226 L63.1511,48.21 L63.2491,48.069 L72.6361,31.751 L81.4101,31.751 L71.5491,48.788 L89.6351,80.226 L44.7331,80.226 Z" id="Fill-468" fill="#555555"></path>
                <path d="M25.5664,103.3711 L8.2844,103.3711 L8.2844,8.6541 L79.9754,8.6541 L84.3984,0.9751 L8.2844,0.9751 L8.2844,0.9501 L0.5874,0.9501 L0.5874,0.9751 L0.5874,8.6541 L0.5874,103.3711 L0.5874,111.0241 L0.5874,111.0501 L21.1394,111.0501 L25.5664,103.3711 Z" id="Fill-470" fill="#FFCC00"></path>
                <path d="M102.9834,0.9502 L102.9834,0.9752 L90.5024,0.9752 L86.0844,8.6542 L102.9834,8.6542 L102.9834,103.3712 L31.6654,103.3712 L27.2384,111.0502 L110.6804,111.0502 L110.6804,111.0242 L110.6804,103.3712 L110.6804,8.6542 L110.6804,0.9752 L110.6804,0.9502 L102.9834,0.9502 Z" id="Fill-472" fill="#555555"></path>
            </g>
        </g>
    </g>
</svg>